<?xml version="1.0" encoding="UTF-8" standalone="no"?>
<!-- Generator: Adobe Illustrator 18.1.0, SVG Export Plug-In . SVG Version: 6.00 Build 0)  -->

<svg
   xmlns:dc="http://purl.org/dc/elements/1.1/"
   xmlns:cc="http://creativecommons.org/ns#"
   xmlns:rdf="http://www.w3.org/1999/02/22-rdf-syntax-ns#"
   xmlns:svg="http://www.w3.org/2000/svg"
   xmlns="http://www.w3.org/2000/svg"
   xmlns:sodipodi="http://sodipodi.sourceforge.net/DTD/sodipodi-0.dtd"
   xmlns:inkscape="http://www.inkscape.org/namespaces/inkscape"
   version="1.1"
   id="Layer_1"
   x="0px"
   y="0px"
   viewBox="0 344 122 80.599998"
   enable-background="new 0 344 610.3 104.6"
   xml:space="preserve"
   inkscape:version="0.48.4 r9939"
   width="100%"
   height="100%"
   sodipodi:docname="appsignal-logo-alone.svg"><metadata
     id="metadata29"><rdf:RDF><cc:Work
         rdf:about=""><dc:format>image/svg+xml</dc:format><dc:type
           rdf:resource="http://purl.org/dc/dcmitype/StillImage" /></cc:Work></rdf:RDF></metadata><defs
     id="defs27" /><sodipodi:namedview
     pagecolor="#ffffff"
     bordercolor="#666666"
     borderopacity="1"
     objecttolerance="10"
     gridtolerance="10"
     guidetolerance="10"
     inkscape:pageopacity="0"
     inkscape:pageshadow="2"
     inkscape:window-width="640"
     inkscape:window-height="480"
     id="namedview25"
     showgrid="false"
     fit-margin-top="0"
     fit-margin-left="0"
     fit-margin-right="0"
     fit-margin-bottom="0"
     inkscape:zoom="0.58495822"
     inkscape:cx="-183.14999"
     inkscape:cy="28.299999"
     inkscape:window-x="0"
     inkscape:window-y="0"
     inkscape:window-maximized="0"
     inkscape:current-layer="Layer_1" /><g
     id="g3"
     transform="translate(-488.3,-2.8314889e-7)"><polygon
       points="488.3,360 488.3,424.6 568.9,424.6 "
       id="polygon5"
       style="fill:#4988a2" /><polygon
       points="545.6,424.6 610.3,350.3 610.3,424.6 "
       id="polygon7"
       style="fill:#7a4198" /><polygon
       points="488.4,424.6 520.5,344 568.6,424.6 "
       id="polygon9"
       style="fill:#478b60" /><polygon
       points="545.6,424.6 494.9,424.6 522.3,387.3 555.1,413.7 "
       id="polygon11"
       style="fill:#135f66" /><polygon
       points="522.3,387.3 494.9,424.6 488.4,424.6 507.9,375.7 "
       id="polygon13"
       style="fill:#2b7b82" /><polygon
       points="555.1,413.7 545.6,424.6 568.7,424.6 "
       id="polygon15"
       style="fill:#194a7f" /><polyline
       points="559.2,409 555.1,413.7 568.7,424.6 559.2,409  "
       id="polyline17"
       style="fill:#5e2b7c" /><polygon
       points="583.4,381.2 610.3,424.6 568.7,424.6 559.2,409 "
       id="polygon19"
       style="fill:#7a2980" /><polygon
       points="555.1,413.7 522.3,387.3 535.8,369.6 559.2,409 "
       id="polygon21"
       style="fill:#456630" /><polygon
       points="574.6,367.1 583.4,381.2 559.2,409 535.8,369.6 542.7,360 558.8,382.6 "
       id="polygon23"
       style="fill:#e77a45" /></g></svg>