<?xml version="1.0" encoding="utf-8"?>
<!-- Generator: Adobe Illustrator 18.1.0, SVG Export Plug-In . SVG Version: 6.00 Build 0)  -->
<!DOCTYPE svg PUBLIC "-//W3C//DTD SVG 1.1//EN" "http://www.w3.org/Graphics/SVG/1.1/DTD/svg11.dtd">
<svg version="1.1" id="Layer_1" xmlns="http://www.w3.org/2000/svg" xmlns:xlink="http://www.w3.org/1999/xlink" x="0px" y="0px"
	 viewBox="0 344 610.3 104.6" enable-background="new 0 344 610.3 104.6" xml:space="preserve">
<g>
	<polygon fill="#4988A2" points="488.3,360 488.3,424.6 568.9,424.6 	"/>
	<polygon fill="#7A4198" points="545.6,424.6 610.3,350.3 610.3,424.6 	"/>
	<polygon fill="#478B60" points="488.4,424.6 520.5,344 568.6,424.6 	"/>
	<polygon fill="#135F66" points="494.9,424.6 522.3,387.3 555.1,413.7 545.6,424.6 	"/>
	<polygon fill="#2B7B82" points="494.9,424.6 488.4,424.6 507.9,375.7 522.3,387.3 	"/>
	<polygon fill="#194A7F" points="555.1,413.7 545.6,424.6 568.7,424.6 	"/>
	<polyline fill="#5E2B7C" points="559.2,409 555.1,413.7 568.7,424.6 559.2,409 	"/>
	<polygon fill="#7A2980" points="610.3,424.6 568.7,424.6 559.2,409 583.4,381.2 	"/>
	<polygon fill="#456630" points="522.3,387.3 535.8,369.6 559.2,409 555.1,413.7 	"/>
	<polygon fill="#E77A45" points="535.8,369.6 542.7,360 558.8,382.6 574.6,367.1 583.4,381.2 559.2,409 	"/>
</g>
<g>
	<path fill="#6F8087" d="M62.5,424.6H50.2l-7-22.9H19.4l-6.7,22.9H0.5l23.8-77.7h14.4L62.5,424.6z M41.2,392.7l-6.1-20.3
		c-1.4-5.1-2.7-10.5-3.9-15.3H31c-1.1,4.8-2.3,10.4-3.6,15.2l-6.2,20.4H41.2z"/>
	<path fill="#6F8087" d="M83.4,377.2c3.9-6.3,9.9-9.7,17.7-9.7c12.6,0,22.1,11.1,22.1,28.6c0,20.6-11.9,29.8-23.7,29.8
		c-6.7,0-12.2-3.1-14.9-7.7h-0.2v29.3H72.7v-60.7c0-7.3-0.2-13.1-0.4-18h10.3l0.6,8.5H83.4z M84.4,402c0,10,6.9,14.3,12.7,14.3
		c9.1,0,14.1-8.4,14.1-20.1c0-10.6-4.8-19.5-13.8-19.5c-7,0-13,6.6-13,14.8V402z"/>
	<path fill="#6F8087" d="M145.7,377.2c3.9-6.3,9.9-9.7,17.7-9.7c12.6,0,22.1,11.1,22.1,28.6c0,20.6-11.9,29.8-23.7,29.8
		c-6.7,0-12.2-3.1-14.9-7.7h-0.2v29.3h-11.8v-60.7c0-7.3-0.2-13.1-0.4-18h10.3l0.6,8.5H145.7z M146.7,402c0,10,6.9,14.3,12.7,14.3
		c9.1,0,14.1-8.4,14.1-20.1c0-10.6-4.8-19.5-13.8-19.5c-7,0-13,6.6-13,14.8L146.7,402L146.7,402z"/>
	<g>
		<path fill="#404D5C" d="M234,359c-2.5-1.4-7.4-3.4-13.8-3.4c-9.2,0-13.1,5.4-13.1,10.3c0,6.6,4.4,9.8,14.2,14.1
			c12.5,5.5,18.4,12.3,18.4,23c0,13-9.6,22.8-27.2,22.8c-7.3,0-15-2.1-18.8-4.7l2.6-9.8c4.2,2.5,10.5,4.6,16.9,4.6
			c9.2,0,14.4-4.8,14.4-11.8c0-6.6-4-10.6-13.2-14.5c-11.6-4.7-19.4-11.7-19.4-22.3c0-12.3,9.8-21.6,25.3-21.6
			c7.4,0,13,1.8,16.3,3.5L234,359z"/>
		<path fill="#404D5C" d="M257.8,360.8c-4.1,0-6.8-3-6.8-6.8c0-4,2.8-6.9,6.9-6.9c4.1,0,6.8,2.9,6.8,6.9
			C264.6,357.7,262,360.8,257.8,360.8z M263.6,424.6h-11.8v-56.1h11.8V424.6z"/>
		<path fill="#404D5C" d="M324.8,368.7c-0.3,4-0.5,8.6-0.5,16.1v31.9c0,11.1-0.9,31.8-27.5,31.8c-6.5,0-13.3-1.4-17.6-4.1l2.6-9.1
			c3.4,2,8.8,4,15.1,4c9.1,0,15.6-5.1,15.6-17.7v-5.4h-0.2c-2.8,4.8-8.3,8.2-15.5,8.2c-13.2,0-22.3-11.7-22.3-27.4
			c0-19,11.5-29.6,23.7-29.6c8.3,0,13,4.3,15.3,8.7h0.2l0.5-7.5C314.2,368.7,324.8,368.7,324.8,368.7z M312.4,390.3
			c0-7.4-4.9-13.5-12.1-13.5c-8.1,0-13.8,7.7-13.8,19.7c0,10.9,5,18.8,13.7,18.8c6.1,0,12.2-4.7,12.2-14V390.3z"/>
		<path fill="#404D5C" d="M384.7,424.6h-11.8v-32.8c0-7.9-2.6-14.6-10.6-14.6c-5.8,0-12,4.8-12,13.7v33.8h-11.8v-40.2
			c0-6.2-0.2-10.9-0.4-15.7h10.2l0.6,8.3h0.3c2.6-4.8,8.5-9.5,16.9-9.5c8.7,0,18.4,5.7,18.4,23L384.7,424.6L384.7,424.6z"/>
		<path fill="#404D5C" d="M437.9,411.4c0,4.8,0.1,9.6,0.8,13.3H428l-0.8-6.5h-0.3c-3.1,4.4-8.6,7.6-15.6,7.6
			c-10.4,0-16.4-7.7-16.4-16.3c0-13.9,12.1-20.9,31.3-20.9c0-4.2,0-12.5-11.3-12.5c-5,0-10,1.5-13.6,3.9l-2.4-7.8
			c4-2.5,10.5-4.7,18-4.7c16.4,0,21.1,10.8,21.1,22.8v21.1H437.9z M426.4,396.5c-9.2,0-19.9,1.7-19.9,11.7c0,6.2,3.9,8.9,8.2,8.9
			c6.4,0,11.7-4.9,11.7-11.4V396.5z"/>
		<path fill="#404D5C" d="M464,424.6h-11.3v-74.3L464,344V424.6z"/>
	</g>
</g>
</svg>
