<?xml version="1.0" encoding="UTF-8" standalone="no"?>
<!-- Created with Inkscape (http://www.inkscape.org/) -->

<svg
   xmlns:dc="http://purl.org/dc/elements/1.1/"
   xmlns:cc="http://creativecommons.org/ns#"
   xmlns:rdf="http://www.w3.org/1999/02/22-rdf-syntax-ns#"
   xmlns:svg="http://www.w3.org/2000/svg"
   xmlns="http://www.w3.org/2000/svg"
   version="1.1"
   width="1117.7231"
   height="262.5"
   id="svg2"
   xml:space="preserve"><metadata
     id="metadata8"><rdf:RDF><cc:Work
         rdf:about=""><dc:format>image/svg+xml</dc:format><dc:type
           rdf:resource="http://purl.org/dc/dcmitype/StillImage" /><dc:title></dc:title></cc:Work></rdf:RDF></metadata><defs
     id="defs6"><clipPath
       id="clipPath16"><path
         d="m 0,1536 2048,0 L 2048,0 0,0 0,1536 z"
         id="path18" /></clipPath></defs><g
     transform="matrix(1.25,0,0,-1.25,-721.13912,1091.25)"
     id="g10"><g
       id="g12"><g
         clip-path="url(#clipPath16)"
         id="g14"><g
           transform="translate(678.7783,873)"
           id="g20"><path
             d="m 0,0 c -48.925,0 -90.033,-33.465 -101.691,-78.75 -0.104,-0.4 -0.176,-0.818 -0.176,-1.25 0,-2.762 2.239,-5 5,-5 l 42.337,0 c 2.016,0 3.744,1.201 4.534,2.921 0,0 0.063,0.12 0.086,0.175 C -41.18,-63.07 -22.123,-50 0,-50 c 30.375,0 55,-24.625 55,-55 0,-30.376 -24.625,-55 -55,-55 -22.123,0 -41.18,13.07 -49.91,31.902 -0.024,0.057 -0.085,0.178 -0.085,0.178 -0.79,1.719 -2.519,2.92 -4.535,2.92 l -42.337,0 c -2.761,0 -5,-2.238 -5,-5 0,-0.434 0.072,-0.85 0.176,-1.25 C -90.033,-176.535 -48.925,-210 0,-210 c 57.99,0 105,47.01 105,105 C 105,-47.01 57.99,0 0,0 m 0,-80 c 13.807,0 25,-11.193 25,-25 0,-13.807 -11.193,-25 -25,-25 -13.808,0 -25,11.193 -25,25 0,13.807 11.192,25 25,25"
             id="path22"
             style="fill:#fbfbfb;fill-opacity:1;fill-rule:nonzero;stroke:none" /></g><g
           transform="translate(1210.3848,778.4766)"
           id="g24"><path
             d="M 0,0 C 4.586,16.608 19.795,28.81 37.863,28.81 55.93,28.81 71.137,16.608 75.725,0 L 0,0 z m 37.863,44.521 c -30.377,0 -55,-24.623 -55,-54.998 0,-30.374 24.623,-55.002 55,-55.002 21.471,0 40.059,12.313 49.116,30.256 0.179,0.354 0.285,0.751 0.285,1.176 0,1.446 -1.172,2.619 -2.619,2.619 l -12.153,0 c -0.869,0 -1.635,-0.426 -2.111,-1.077 -7.067,-10.411 -18.989,-17.257 -32.518,-17.257 -19.921,0 -36.365,14.83 -38.929,34.047 l 91.242,0 c 1.4,0 2.541,1.104 2.611,2.488 0.045,0.913 0.074,1.829 0.074,2.75 0,30.375 -24.625,54.998 -54.998,54.998 m 177.008,-68.443 c -0.414,0.238 -0.865,0.351 -1.31,0.351 l -22.766,0 c -0.868,0 -1.712,-0.434 -2.207,-1.211 -4.967,-8.665 -14.308,-14.503 -25.011,-14.503 -15.911,0 -28.81,12.899 -28.81,28.808 0,15.912 12.899,28.81 28.81,28.81 10.703,0 20.044,-5.838 25.011,-14.503 0.495,-0.776 1.339,-1.21 2.207,-1.211 l 22.766,0 c 0.445,0 0.896,0.112 1.31,0.351 1.106,0.638 1.568,1.961 1.165,3.124 -7.029,22.277 -27.858,38.427 -52.459,38.427 -30.376,0 -55.001,-24.622 -55.001,-54.998 0,-30.375 24.625,-55.002 55.001,-55.002 24.601,0 45.43,16.155 52.459,38.432 0.403,1.164 -0.059,2.486 -1.165,3.125 m -281.77,-7.506 -12.159,0 c -0.848,0 -1.596,-0.406 -2.077,-1.03 -7.06,-10.437 -19,-17.304 -32.549,-17.304 -21.698,0 -39.287,17.591 -39.287,39.285 0,21.696 17.589,39.287 39.287,39.287 13.551,0 25.491,-6.869 32.553,-17.308 0.479,-0.621 1.227,-1.026 2.073,-1.026 l 12.159,0 c 1.446,0 2.618,1.172 2.618,2.619 0,0.425 -0.105,0.821 -0.284,1.176 -9.058,17.942 -27.648,30.25 -49.119,30.25 -30.377,0 -55.002,-24.623 -55.002,-54.998 0,-30.373 24.625,-55.002 55.002,-55.002 21.471,0 40.061,12.313 49.119,30.257 0.178,0.354 0.284,0.751 0.284,1.175 0,1.446 -1.172,2.619 -2.618,2.619 m -210.775,0 -12.159,0 c -0.847,0 -1.597,-0.406 -2.075,-1.03 -7.062,-10.437 -19.002,-17.304 -32.55,-17.304 -21.698,0 -39.287,17.591 -39.287,39.285 0,21.696 17.589,39.287 39.287,39.287 13.549,0 25.491,-6.869 32.552,-17.308 0.479,-0.621 1.227,-1.026 2.073,-1.026 l 12.159,0 c 1.445,0 2.619,1.172 2.619,2.619 0,0.425 -0.107,0.821 -0.285,1.176 -9.058,17.942 -27.647,30.25 -49.118,30.25 -30.376,0 -55.001,-24.623 -55.001,-54.998 0,-30.373 24.625,-55.002 55.001,-55.002 21.471,0 40.06,12.313 49.118,30.257 0.178,0.354 0.285,0.751 0.285,1.175 0,1.446 -1.174,2.619 -2.619,2.619 m 242.202,107.381 -10.476,0 c -1.447,0 -2.619,-1.172 -2.619,-2.619 l 0,-133.573 c 0,-1.448 1.172,-2.619 2.619,-2.619 l 10.476,0 c 1.447,0 2.619,1.171 2.619,2.619 l 0,133.573 c 0,1.447 -1.172,2.619 -2.619,2.619 m -140.02,-31.496 c -15.847,-0.743 -28.506,-8.319 -36.705,-19.885 l 0,14.713 c -0.001,1.447 -1.173,2.619 -2.619,2.619 l -10.477,0 c -1.446,0 -2.619,-1.173 -2.619,-2.619 l 0,-99.524 c 0,-1.448 1.173,-2.619 2.619,-2.619 l 10.477,0 c 1.446,0 2.619,1.171 2.619,2.619 l 0,49.762 c 0,20.815 16.192,37.845 36.666,39.195 1.446,0 2.619,1.178 2.619,2.624 l 0,10.501 c 0,1.433 -1.151,2.595 -2.58,2.614 m 433.578,-2.553 0,-102.143 c 0,-1.448 -1.174,-2.619 -2.619,-2.619 l -20.953,0 c -1.447,0 -2.618,1.171 -2.618,2.619 l 0,102.143 26.19,0 z M 244.99,78.572 c -8.678,0 -15.715,-7.037 -15.715,-15.717 0,-8.677 7.037,-15.714 15.715,-15.714 8.68,0 15.715,7.037 15.715,15.714 0,8.68 -7.035,15.717 -15.715,15.717 m -488.617,-138.811 0,102.143 -15.714,0 0,-102.143 c 0,-1.448 1.174,-2.619 2.62,-2.619 l 10.475,0 c 1.447,0 2.619,1.171 2.619,2.619 m 2.619,123.094 c 0,-5.785 -4.689,-10.475 -10.476,-10.475 -5.786,0 -10.476,4.69 -10.476,10.475 0,5.788 4.69,10.478 10.476,10.478 5.787,0 10.476,-4.69 10.476,-10.478"
             id="path26"
             style="fill:#fbfbfb;fill-opacity:1;fill-rule:nonzero;stroke:none" /></g></g></g></g></svg>