<?xml version="1.0" encoding="UTF-8" standalone="no"?>
<!-- Created with Inkscape (http://www.inkscape.org/) -->

<svg
   xmlns:dc="http://purl.org/dc/elements/1.1/"
   xmlns:cc="http://creativecommons.org/ns#"
   xmlns:rdf="http://www.w3.org/1999/02/22-rdf-syntax-ns#"
   xmlns:svg="http://www.w3.org/2000/svg"
   xmlns="http://www.w3.org/2000/svg"
   version="1.1"
   width="869.17371"
   height="233.58051"
   id="svg2"
   xml:space="preserve"><metadata
     id="metadata8"><rdf:RDF><cc:Work
         rdf:about=""><dc:format>image/svg+xml</dc:format><dc:type
           rdf:resource="http://purl.org/dc/dcmitype/StillImage" /><dc:title></dc:title></cc:Work></rdf:RDF></metadata><defs
     id="defs6"><clipPath
       id="clipPath16"><path
         d="M 0,600 800,600 800,0 0,0 0,600 z"
         id="path18" /></clipPath><clipPath
       id="clipPath28"><path
         d="m 43.796,355.502 c 0,-49.978 40.515,-90.493 90.487,-90.493 l 0,0 c 49.978,0 90.488,40.515 90.488,90.493 l 0,0 c 0,49.969 -40.51,90.479 -90.488,90.479 l 0,0 c -49.972,0 -90.487,-40.51 -90.487,-90.479"
         id="path30" /></clipPath><clipPath
       id="clipPath36"><path
         d="m 93.6313,411.786 246.1397,0 0,-257.766 -246.1397,0 0,257.766 z"
         id="path38" /></clipPath><clipPath
       id="clipPath40"><path
         d="m 339.771,242.471 -169.315,169.315 -33.314,-19.678 -0.101,9.298 c -24.08,-0.38 -43.516,-20.134 -43.409,-44.282 0.043,-11.78 4.676,-22.843 13.039,-31.136 8.37,-8.3 19.46,-12.84 31.245,-12.795 24.322,0.104 44.037,19.969 43.934,44.294 l 19.563,0.077 c 0.093,-22.971 -12.052,-43.186 -30.293,-54.46 -9.638,-5.958 -20.977,-9.425 -33.12,-9.47 -15.283,-0.062 -29.754,5.241 -41.3,15.005 l 154.62,-154.619 88.451,88.451 z"
         id="path42" /></clipPath><linearGradient
       x1="0"
       y1="0"
       x2="1"
       y2="0"
       id="linearGradient44"
       gradientUnits="userSpaceOnUse"
       gradientTransform="matrix(-153.33345,169.33357,169.33357,153.33345,296.28564,189.36035)"
       spreadMethod="pad"><stop
         id="stop46"
         style="stop-color:#ffffff;stop-opacity:1"
         offset="0" /><stop
         id="stop48"
         style="stop-color:#282828;stop-opacity:1"
         offset="1" /></linearGradient><clipPath
       id="clipPath68"><path
         d="M 0,600 800,600 800,0 0,0 0,600 z"
         id="path70" /></clipPath></defs><g
     transform="matrix(1.25,0,0,-1.25,-52.43644,559.32204)"
     id="g10"><g
       id="g12"><g
         clip-path="url(#clipPath16)"
         id="g14"><g
           transform="translate(224.7715,355.502)"
           id="g20"><path
             d="m 0,0 c 0,-49.978 -40.51,-90.492 -90.489,-90.492 -49.971,0 -90.487,40.514 -90.487,90.492 0,49.969 40.516,90.479 90.487,90.479 C -40.51,90.479 0,49.969 0,0"
             id="path22"
             style="fill:#f3554c;fill-opacity:1;fill-rule:nonzero;stroke:none" /></g></g></g><g
       id="g24"><g
         clip-path="url(#clipPath28)"
         id="g26"><g
           id="g32"><g
             id="g34" /><g
             id="g50"><g
               clip-path="url(#clipPath36)"
               id="g52"
               style="opacity:0.30000299"><g
                 id="g54"><g
                   clip-path="url(#clipPath40)"
                   id="g56"><g
                     id="g58"><g
                       id="g60"><path
                         d="m 339.771,242.471 -169.315,169.315 -33.314,-19.678 -0.101,9.298 c -24.08,-0.38 -43.516,-20.134 -43.409,-44.282 0.043,-11.78 4.676,-22.843 13.039,-31.136 8.37,-8.3 19.46,-12.84 31.245,-12.795 24.322,0.104 44.037,19.969 43.934,44.294 l 19.563,0.077 c 0.093,-22.971 -12.052,-43.186 -30.293,-54.46 -9.638,-5.958 -20.977,-9.425 -33.12,-9.47 -15.283,-0.062 -29.754,5.241 -41.3,15.005 l 154.62,-154.619 88.451,88.451 z"
                         id="path62"
                         style="fill:url(#linearGradient44);stroke:none" /></g></g></g></g></g></g></g></g></g><g
       id="g64"><g
         clip-path="url(#clipPath68)"
         id="g66"><g
           transform="translate(137.9155,313.1929)"
           id="g72"><path
             d="m 0,0 c -11.784,-0.045 -22.875,4.495 -31.245,12.795 -8.363,8.293 -12.996,19.356 -13.039,31.136 -0.106,24.148 19.33,43.902 43.409,44.282 L -0.773,78.916 32.833,98.765 -1.165,117.95 -1.06,107.766 C -35.895,107.284 -64,78.751 -63.855,43.849 c 0.072,-17.01 6.768,-32.973 18.84,-44.947 12.08,-11.975 28.093,-18.528 45.099,-18.461 12.143,0.045 23.483,3.513 33.12,9.47 C 51.446,1.186 63.59,21.4 63.497,44.372 L 43.934,44.294 C 44.037,19.969 24.322,0.104 0,0"
             id="path74"
             style="fill:#ffffff;fill-opacity:1;fill-rule:nonzero;stroke:none" /></g></g></g><path
       d="m 258.73726,399.96626 6.22358,0 0,-40.42241 51.4523,0 0,40.42241 6.22358,0 0,-91.99796 -6.22358,0 0,46.58437 -51.4523,0 0,-46.58437 -6.22358,0 0,91.99796"
       id="path3466"
       style="font-size:126.19680023px;font-variant:normal;font-weight:300;font-stretch:normal;writing-mode:lr-tb;fill:#f3554c;fill-opacity:1;fill-rule:nonzero;stroke:none;font-family:Museo Sans 300;-inkscape-font-specification:MuseoSans-300" /><path
       d="m 353.32324,399.96626 6.40843,0 0,-91.99796 -6.40843,0 0,91.99796"
       id="path3468"
       style="font-size:126.19680023px;font-variant:normal;font-weight:300;font-stretch:normal;writing-mode:lr-tb;fill:#f3554c;fill-opacity:1;fill-rule:nonzero;stroke:none;font-family:Museo Sans 300;-inkscape-font-specification:MuseoSans-300" /><path
       d="m 394.06016,394.85184 0,-42.271 18.91719,0 c 6.86026,-4e-5 12.15954,1.828 15.89784,5.48414 3.77927,3.65604 5.66894,8.89369 5.669,15.71298 -6e-5,6.69592 -1.88973,11.89249 -5.669,15.58974 -3.7383,3.65601 -9.03758,5.48405 -15.89784,5.48414 l -18.91719,0 m -6.16196,5.11442 25.07915,0 c 9.16072,-9e-5 16.10318,-2.21839 20.8274,-6.65491 4.68302,-4.43669 7.02456,-10.94781 7.02463,-19.53339 -7e-5,-8.62679 -2.34161,-15.15846 -7.02463,-19.59501 -4.72422,-4.43665 -11.66668,-6.65495 -20.8274,-6.65491 l -18.91719,0 0,-39.55974 -6.16196,0 0,91.99796"
       id="path3470"
       style="font-size:126.19680023px;font-variant:normal;font-weight:300;font-stretch:normal;writing-mode:lr-tb;fill:#f3554c;fill-opacity:1;fill-rule:nonzero;stroke:none;font-family:Museo Sans 300;-inkscape-font-specification:MuseoSans-300" /><path
       d="m 450.7319,399.96626 71.54027,0 0,-5.0528 -32.65835,0 0,-86.94516 -6.22357,0 0,86.94516 -32.65835,0 0,5.0528"
       id="path3472"
       style="font-size:126.19680023px;font-variant:normal;font-weight:300;font-stretch:normal;writing-mode:lr-tb;fill:#ffffff;fill-opacity:1;fill-rule:nonzero;stroke:none;font-family:Museo Sans 300;-inkscape-font-specification:MuseoSans-300" /><path
       d="m 537.506,399.96626 52.00689,0 0,-5.11442 -45.7217,0 0,-35.30799 43.81149,0 0,-4.99118 -43.81149,0 0,-41.59319 46.83085,0 0,-4.99118 -53.11604,0 0,91.99796"
       id="path3474"
       style="font-size:126.19680023px;font-variant:normal;font-weight:300;font-stretch:normal;writing-mode:lr-tb;fill:#ffffff;fill-opacity:1;fill-rule:nonzero;stroke:none;font-family:Museo Sans 300;-inkscape-font-specification:MuseoSans-300" /><path
       d="m 661.01669,395.34479 0,-5.79223 c -4.02587,2.01282 -8.48301,3.79979 -13.37144,5.3609 -3.20426,1.0269 -7.25061,1.58148 -12.13905,1.66373 -7.23006,0.12315 -13.10444,-1.47896 -17.62318,-4.80633 -4.10799,-3.03998 -6.16197,-8.25709 -6.16196,-15.65136 -10e-6,-4.55991 1.56101,-8.17492 4.68309,-10.84504 3.32743,-2.83455 8.33915,-5.11447 15.03516,-6.83976 l 7.33273,-1.91021 c 6.5727,-1.72539 11.64603,-3.77938 15.22002,-6.16195 6.69593,-4.55989 10.04392,-10.2905 10.04399,-17.19185 -7e-5,-9.98238 -2.93727,-16.9043 -8.8116,-20.76578 -6.40848,-4.14905 -12.98123,-6.22357 -19.71825,-6.22358 -7.02466,10e-6 -13.30984,0.96538 -18.85557,2.89612 -3.4918,1.39671 -7.14788,3.32745 -10.96828,5.79224 l 0,6.03871 c 5.75114,-3.40962 9.77695,-5.58684 12.07743,-6.53167 5.13493,-2.09507 9.90017,-3.1426 14.29573,-3.14259 7.51754,-1e-5 13.76164,1.66372 18.73234,4.99118 4.68302,3.12204 7.02456,8.60618 7.02462,16.45241 -6e-5,4.6009 -1.43785,8.21591 -4.31336,10.84504 -4.14911,3.82037 -9.53054,6.53163 -16.14432,8.13378 l -7.39434,1.78696 c -5.91551,1.43775 -10.94777,3.45065 -15.09679,6.03872 -6.28521,3.94359 -9.4278,9.32503 -9.42779,16.14431 -10e-6,8.50342 2.56747,15.03509 7.70244,19.59502 4.76522,4.23111 11.99524,6.36725 21.69008,6.40843 5.71003,-1e-4 10.08501,-0.49305 13.12496,-1.47887 7.80508,-2.54703 12.15952,-4.14914 13.06334,-4.80633"
       id="path3476"
       style="font-size:126.19680023px;font-variant:normal;font-weight:300;font-stretch:normal;writing-mode:lr-tb;fill:#ffffff;fill-opacity:1;fill-rule:nonzero;stroke:none;font-family:Museo Sans 300;-inkscape-font-specification:MuseoSans-300" /><path
       d="m 664.88786,399.96626 71.54027,0 0,-5.0528 -32.65835,0 0,-86.94516 -6.22357,0 0,86.94516 -32.65835,0 0,5.0528"
       id="path3478"
       style="font-size:126.19680023px;font-variant:normal;font-weight:300;font-stretch:normal;writing-mode:lr-tb;fill:#ffffff;fill-opacity:1;fill-rule:nonzero;stroke:none;font-family:Museo Sans 300;-inkscape-font-specification:MuseoSans-300" /></g></svg>