<?xml version="1.0" encoding="UTF-8" standalone="no"?>
<svg width="237px" height="54px" viewBox="0 0 237 54" version="1.1" xmlns="http://www.w3.org/2000/svg" xmlns:xlink="http://www.w3.org/1999/xlink" xmlns:sketch="http://www.bohemiancoding.com/sketch/ns">
    <!-- Generator: Sketch 3.0.3 (7891) - http://www.bohemiancoding.com/sketch -->
    <title>logo</title>
    <desc>Created with Sketch.</desc>
    <defs></defs>
    <g id="Pricing" stroke="none" stroke-width="1" fill="none" fill-rule="evenodd" sketch:type="MSPage">
        <g id="Desktop" sketch:type="MSArtboardGroup" transform="translate(-61.000000, -11.000000)">
            <g id="navbar" sketch:type="MSLayerGroup">
                <g id="logo" transform="translate(63.000000, 13.000000)" sketch:type="MSShapeGroup">
                    <g id="symbol" stroke="#FFFFFF">
                        <path d="M25.0673077,50 C50.1346154,49.9999954 50.1346154,38.8071194 50.1346154,25 C50.1346154,11.1928806 50.1346154,3.77489485e-06 25.0673077,0 C2.78303022e-15,-3.77489498e-06 0,11.1928806 0,25 C0,38.8071194 -1.3358545e-13,50.0000038 25.0673077,50 Z" id="background" stroke-width="1.5"></path>
                        <g id="cloud" transform="translate(6.933511, 14.563830)">
                            <path d="M6.44792608,20.212766 C2.88683466,20.212766 0,17.3550092 0,13.8297872 C0,10.3045653 2.88683466,7.44680851 6.44792608,7.44680851 C7.23116186,7.44680851 7.98178064,7.5850518 8.67624131,7.8382344 C9.71618645,3.34874951 13.7767136,0 18.627342,0 C24.2657368,0 28.8365583,4.52478151 28.8365583,10.106383 C28.8365583,10.1753244 28.835861,10.2441045 28.8344728,10.3127161 C29.4425997,10.0654358 30.1085927,9.92907801 30.8067579,9.92907801 C33.6754149,9.92907801 36.0009206,12.2311598 36.0009206,15.070922 C36.0009206,17.9106841 33.6754149,20.212766 30.8067579,20.212766 L18.627342,20.212766 L6.98525326,20.212766 C6.80808209,20.2053874 6.62887452,20.212766 6.44792608,20.212766 Z" id="Oval-1" stroke-width="1.5"></path>
                            <path d="M20,14.75 L25.5664892,14.75" id="Path" stroke-width="1.5" fill="#4A4A4A"></path>
                            <path d="M17.9867238,11.5373474 L13.5707082,14.1881375 L13.5707082,13.3202842 L17.1129667,11.2126403 L13.5707082,9.05186265 L13.5707082,8.2017206 L17.9867238,10.8288957 L17.9867238,11.5373474 Z" id=">" stroke-width="0.3" fill="#FFFFFF"></path>
                        </g>
                    </g>
                    <path d="M77.9009296,29.2262962 C77.9009296,31.1217247 77.201217,32.6235444 75.8017707,33.7318004 C74.4023245,34.8400564 72.5424936,35.3941761 70.2222222,35.3941761 C67.4337346,35.3941761 65.2955794,35.0886335 63.8076923,34.4775391 L63.8076923,32.8928445 C65.4516514,33.5867992 67.5481881,33.9337713 70.0973652,33.9337713 C71.97023,33.9337713 73.4554936,33.5065295 74.5532004,32.652033 C75.6509073,31.7975366 76.1997525,30.6763505 76.1997525,29.2884411 C76.1997525,28.4287658 76.0176712,27.7166961 75.653503,27.1522106 C75.2893349,26.587725 74.6962699,26.0724455 73.8742903,25.6063565 C73.0523108,25.1402676 71.8453716,24.6379347 70.2534365,24.099343 C67.9227603,23.301813 66.3126409,22.4395613 65.4230301,21.5125621 C64.5334193,20.585563 64.0886206,19.3504457 64.0886206,17.8071733 C64.0886206,16.1085379 64.7571193,14.7232387 66.0941367,13.651234 C67.431154,12.5792294 69.1505222,12.0432351 71.2522927,12.0432351 C73.3956825,12.0432351 75.4089819,12.4471728 77.2922515,13.2550604 L76.7147878,14.6222479 C74.8211134,13.8350754 73.0107045,13.441495 71.283507,13.441495 C69.5979286,13.441495 68.255729,13.8298967 67.2568678,14.6067116 C66.2580065,15.3835266 65.7585834,16.4399791 65.7585834,17.7761009 C65.7585834,18.615061 65.912052,19.3038266 66.2189937,19.8424183 C66.5259354,20.38101 67.0279597,20.8652174 67.7250816,21.295055 C68.4222035,21.7248927 69.6187381,22.2401722 71.3147212,22.8409091 C73.0939428,23.4520035 74.4309401,24.0449634 75.3257533,24.6198065 C76.2205665,25.1946495 76.8734582,25.8471643 77.284448,26.5773704 C77.6954378,27.3075764 77.9009296,28.1905429 77.9009296,29.2262962 C77.9009296,29.2262962 77.9009296,28.1905429 77.9009296,29.2262962 Z M94.1635577,35.0834517 L94.1635577,24.1304155 C94.1635577,22.4317801 93.8045973,21.1966628 93.0866658,20.4250266 C92.3687343,19.6533904 91.2554369,19.2675781 89.7467403,19.2675781 C87.7178034,19.2675781 86.2325398,19.777679 85.290905,20.797896 C84.3492702,21.8181129 83.8784599,23.472704 83.8784599,25.7617187 L83.8784599,35.0834517 L82.3333541,35.0834517 L82.3333541,10.9090909 L83.8784599,10.9090909 L83.8784599,18.5995206 L83.8004242,20.7590554 L83.9096741,20.7590554 C84.5443672,19.7440172 85.3455251,19.0086434 86.313172,18.5529119 C87.2808188,18.0971805 88.4825557,17.8693182 89.9184187,17.8693182 C93.7681964,17.8693182 95.6930563,19.9252576 95.6930563,24.0371982 L95.6930563,35.0834517 L94.1635577,35.0834517 Z M108.038295,35.3941761 C105.572357,35.3941761 103.650098,34.6380876 102.271461,33.1258878 C100.892825,31.613688 100.203517,29.4956043 100.203517,26.7715732 C100.203517,24.0786146 100.869414,21.9216908 102.201229,20.3007369 C103.533044,18.679783 105.327846,17.8693182 107.585688,17.8693182 C109.583411,17.8693182 111.159715,18.5632625 112.314648,19.9511719 C113.469582,21.3390813 114.04704,23.224124 114.04704,25.6063565 L114.04704,26.8492543 L101.826658,26.8492543 C101.847468,29.1693416 102.39111,30.9404532 103.457603,32.162642 C104.524095,33.3848309 106.050978,33.9959162 108.038295,33.9959162 C109.005942,33.9959162 109.856522,33.9285932 110.590061,33.7939453 C111.323599,33.6592974 112.252214,33.3692908 113.375933,32.9239169 L113.375933,34.3221768 C112.418691,34.7364782 111.534296,35.0187167 110.722721,35.1689009 C109.911147,35.3190851 109.016347,35.3941761 108.038295,35.3941761 Z M107.585688,19.2365057 C105.952134,19.2365057 104.641148,19.7725 103.652692,20.8445046 C102.664236,21.9165093 102.086778,23.4623479 101.920301,25.4820668 L112.408291,25.4820668 C112.408291,23.5244931 111.981701,21.9941905 111.128507,20.8911133 C110.275313,19.788036 109.094385,19.2365057 107.585688,19.2365057 Z M120.274284,35.0834517 L118.729178,35.0834517 L118.729178,10.9090909 L120.274284,10.9090909 L120.274284,35.0834517 Z M127.500385,35.0834517 L125.955279,35.0834517 L125.955279,10.9090909 L127.500385,10.9090909 L127.500385,35.0834517 Z M130.340882,18.1955788 L131.932809,18.1955788 L135.522449,27.672674 C136.614953,30.5831407 137.306862,32.5458638 137.598197,33.560902 L137.69184,33.560902 C138.128842,32.2247803 138.84156,30.2309851 139.830016,27.5794567 L143.419656,18.1955788 L145.011583,18.1955788 L137.410911,37.8178267 C136.797028,39.4128868 136.281998,40.490054 135.865806,41.0493608 C135.449614,41.6086676 134.963196,42.0281414 134.406539,42.3077947 C133.849882,42.5874481 133.176181,42.7272727 132.385416,42.7272727 C131.792342,42.7272727 131.131647,42.6185203 130.403311,42.4010121 L130.403311,41.064897 C131.006789,41.2306175 131.65708,41.3134766 132.354202,41.3134766 C132.884847,41.3134766 133.353056,41.189188 133.758843,40.9406072 C134.164631,40.6920265 134.531395,40.3062141 134.859146,39.7831587 C135.186897,39.2601033 135.566667,38.4315131 135.998466,37.2973633 C136.430266,36.1632134 136.70859,35.4252503 136.833448,35.0834517 C136.833448,35.0834517 136.70859,35.4252503 136.833448,35.0834517 L130.340882,18.1955788 Z M166.2841,13.4725675 C163.422778,13.4725675 161.170172,14.3840167 159.526213,16.2069425 C157.882254,18.0298683 157.060287,20.5259962 157.060287,23.6954013 C157.060287,26.9373091 157.835433,29.4541518 159.385749,31.246005 C160.936065,33.0378582 163.152255,33.9337713 166.034386,33.9337713 C167.94887,33.9337713 169.707255,33.6903729 171.309595,33.2035689 L171.309595,34.6018288 C169.800898,35.130063 167.917657,35.3941761 165.659815,35.3941761 C162.455135,35.3941761 159.932007,34.3636171 158.090357,32.302468 C156.248707,30.241319 155.327895,27.3619681 155.327895,23.6643288 C155.327895,21.354599 155.767492,19.3193743 156.646698,17.5585937 C157.525904,15.7978132 158.790068,14.4384074 160.43923,13.4803356 C162.088391,12.5222638 164.005448,12.0432351 166.190457,12.0432351 C168.417085,12.0432351 170.409575,12.4575302 172.167987,13.2861328 L171.528095,14.7154652 C169.863326,13.8868626 168.115345,13.4725675 166.2841,13.4725675 Z M177.552447,35.0834517 L176.007341,35.0834517 L176.007341,10.9090909 L177.552447,10.9090909 L177.552447,35.0834517 Z M197.26425,26.6162109 C197.26425,29.3713147 196.59315,31.5230598 195.250931,33.071511 C193.908711,34.6199622 192.056683,35.3941761 189.694793,35.3941761 C188.206906,35.3941761 186.89592,35.0368466 185.761796,34.3221768 C184.627673,33.6075071 183.758884,32.5821267 183.155406,31.246005 C182.551927,29.9098832 182.250192,28.366634 182.250192,26.6162109 C182.250192,23.8611072 182.921292,21.7145407 184.263512,20.1764471 C185.605732,18.6383535 187.447355,17.8693182 189.788436,17.8693182 C192.119112,17.8693182 193.947729,18.6487108 195.274341,20.2075195 C196.600954,21.7663282 197.26425,23.9025373 197.26425,26.6162109 C197.26425,26.6162109 197.26425,23.9025373 197.26425,26.6162109 Z M183.873334,26.6162109 C183.873334,28.9362983 184.385763,30.74625 185.410636,32.0461204 C186.435509,33.3459908 187.884356,33.9959162 189.757221,33.9959162 C191.630086,33.9959162 193.078933,33.3459908 194.103807,32.0461204 C195.12868,30.74625 195.641109,28.9362983 195.641109,26.6162109 C195.641109,24.285766 195.123478,22.4784037 194.0882,21.1940696 C193.052921,19.9097355 191.598872,19.2675781 189.726007,19.2675781 C187.853142,19.2675781 186.409497,19.9071462 185.395029,21.1863015 C184.38056,22.4654568 183.873334,24.2754085 183.873334,26.6162109 C183.873334,26.6162109 183.873334,24.2754085 183.873334,26.6162109 Z M203.304209,18.1955788 L203.304209,29.1330788 C203.304209,30.8317142 203.663169,32.0668315 204.381101,32.8384677 C205.099032,33.6101039 206.21233,33.9959162 207.721026,33.9959162 C209.739559,33.9959162 211.224822,33.4884047 212.176862,32.4733665 C213.128901,31.4583283 213.604914,29.8063265 213.604914,27.5173118 L213.604914,18.1955788 L215.134413,18.1955788 L215.134413,35.0834517 L213.823414,35.0834517 L213.542485,32.7530185 L213.448843,32.7530185 C212.345933,34.5137991 210.384657,35.3941761 207.564955,35.3941761 C203.704773,35.3941761 201.77471,33.3382367 201.77471,29.2262962 L201.77471,18.1955788 L203.304209,18.1955788 Z M227.027045,17.8693182 C228.254812,17.8693182 229.316086,18.0920018 230.210899,18.5373757 C231.105712,18.9827496 231.90687,19.7440169 232.614397,20.8212003 L232.70804,20.8212003 C232.645611,19.5161511 232.614397,18.237015 232.614397,16.9837536 L232.614397,10.9090909 L234.143895,10.9090909 L234.143895,35.0834517 L233.129432,35.0834517 L232.739254,32.5044389 L232.614397,32.5044389 C231.324201,34.43094 229.472174,35.3941761 227.058259,35.3941761 C224.717178,35.3941761 222.927578,34.6691597 221.689407,33.2191051 C220.451235,31.7690505 219.832158,29.6561455 219.832158,26.8803267 C219.832158,23.9595024 220.446033,21.7274876 221.6738,20.1842152 C222.901567,18.6409428 224.685964,17.8693182 227.027045,17.8693182 C227.027045,17.8693182 224.685964,17.8693182 227.027045,17.8693182 Z M227.027045,19.2675781 C225.17499,19.2675781 223.783368,19.9149142 222.852138,21.2096058 C221.920908,22.5042974 221.4553,24.3841614 221.4553,26.8492543 C221.4553,31.6344344 223.322934,34.0269886 227.058259,34.0269886 C228.972743,34.0269886 230.377371,33.4728689 231.272184,32.3646129 C232.166997,31.2563569 232.614397,29.4282798 232.614397,26.8803267 L232.614397,26.6162109 C232.614397,24.0061127 232.1748,22.128838 231.295594,20.9843306 C230.416388,19.8398232 228.993553,19.2675781 227.027045,19.2675781 Z" id="text" fill="#FFFFFF"></path>
                </g>
            </g>
        </g>
    </g>
</svg>
