<svg width="50" height="50" viewBox="0 0 50 50" xmlns="http://www.w3.org/2000/svg"><title>Slice 1</title><g fill="none"><path d="M25 49.735c25 0 25-11.133 25-24.867C50 11.134 50 0 25 0S0 11.134 0 24.868c0 13.734 0 24.867 25 24.867zm0 0" id="Oval 1" fill="#4A4A4A"/><g><path d="M13.346 34.598c-3.552 0-6.43-2.843-6.43-6.35 0-3.506 2.878-6.35 6.43-6.35.78 0 1.53.14 2.222.39 1.037-4.465 5.087-7.796 9.924-7.796 5.623 0 10.182 4.5 10.182 10.053 0 .07 0 .137-.002.205.606-.246 1.27-.38 1.967-.38 2.86 0 5.18 2.29 5.18 5.113 0 2.825-2.32 5.115-5.18 5.115H13.88c-.177-.007-.356 0-.536 0zM-.484 5.614" stroke="#fff" stroke-width="1.5" fill="#4A4A4A"/><path d="M27 29v1h5v-1h-5zM13.17.016" opacity=".907" fill="#fff"/><path d="M25.437 25.785l-4.75 2.85v-.933l3.81-2.266-3.81-2.323V22.2l4.75 2.823v.762zM11.607-3.2" stroke="#fff" stroke-width=".7" fill="#fff"/></g></g></svg>